<mxfile host="app.diagrams.net" modified="2021-10-01T01:11:18.607Z" agent="5.0 (Windows NT 10.0; Win64; x64) AppleWebKit/537.36 (KHTML, like Gecko) Chrome/94.0.4606.61 Safari/537.36" etag="6kwNpySAp1mYlBze97gE" version="15.3.8" type="github">
  <diagram id="9GsOEOJcbLazoN9ySl07" name="Page-1">
    <mxGraphModel dx="4369" dy="1007" grid="1" gridSize="10" guides="1" tooltips="1" connect="1" arrows="1" fold="1" page="1" pageScale="1" pageWidth="1169" pageHeight="827" math="0" shadow="0">
      <root>
        <mxCell id="0" />
        <mxCell id="1" parent="0" />
        <mxCell id="w_SKbQwyrvD0fzMbNYvA-1" value="Click - Financial Summary" style="rounded=1;whiteSpace=wrap;html=1;hachureGap=4;pointerEvents=0;" vertex="1" parent="1">
          <mxGeometry x="-720" y="130" width="120" height="60" as="geometry" />
        </mxCell>
        <mxCell id="w_SKbQwyrvD0fzMbNYvA-2" value="Set dates" style="rounded=1;whiteSpace=wrap;html=1;hachureGap=4;pointerEvents=0;" vertex="1" parent="1">
          <mxGeometry x="-560" y="130" width="120" height="60" as="geometry" />
        </mxCell>
        <mxCell id="w_SKbQwyrvD0fzMbNYvA-3" value="Select Report Type - Transaction" style="rounded=1;whiteSpace=wrap;html=1;hachureGap=4;pointerEvents=0;" vertex="1" parent="1">
          <mxGeometry x="-720" y="230" width="120" height="60" as="geometry" />
        </mxCell>
        <mxCell id="w_SKbQwyrvD0fzMbNYvA-4" value="Download Report" style="rounded=1;whiteSpace=wrap;html=1;hachureGap=4;pointerEvents=0;" vertex="1" parent="1">
          <mxGeometry x="-560" y="230" width="120" height="60" as="geometry" />
        </mxCell>
        <mxCell id="w_SKbQwyrvD0fzMbNYvA-5" value="Save New Report and&lt;br&gt;Archive Old Report" style="rounded=1;whiteSpace=wrap;html=1;hachureGap=4;pointerEvents=0;" vertex="1" parent="1">
          <mxGeometry x="-400" y="230" width="120" height="60" as="geometry" />
        </mxCell>
        <mxCell id="w_SKbQwyrvD0fzMbNYvA-6" value="" style="endArrow=none;html=1;startSize=14;endSize=14;sourcePerimeterSpacing=8;targetPerimeterSpacing=8;" edge="1" parent="1">
          <mxGeometry width="50" height="50" relative="1" as="geometry">
            <mxPoint x="-1210" y="670" as="sourcePoint" />
            <mxPoint x="-280" y="669.9999999999998" as="targetPoint" />
          </mxGeometry>
        </mxCell>
        <mxCell id="w_SKbQwyrvD0fzMbNYvA-7" value="Archive - Duplicate File" style="rounded=1;whiteSpace=wrap;html=1;hachureGap=4;pointerEvents=0;fillColor=#d5e8d4;strokeColor=#82b366;" vertex="1" parent="1">
          <mxGeometry x="-1210" y="700" width="120" height="60" as="geometry" />
        </mxCell>
        <mxCell id="w_SKbQwyrvD0fzMbNYvA-8" value="Add to - Product Table" style="rounded=1;whiteSpace=wrap;html=1;hachureGap=4;pointerEvents=0;" vertex="1" parent="1">
          <mxGeometry x="-720" y="700" width="120" height="60" as="geometry" />
        </mxCell>
        <mxCell id="w_SKbQwyrvD0fzMbNYvA-9" value="" style="endArrow=classic;html=1;startSize=14;endSize=14;sourcePerimeterSpacing=8;targetPerimeterSpacing=8;exitX=1;exitY=0.5;exitDx=0;exitDy=0;entryX=0;entryY=0.5;entryDx=0;entryDy=0;" edge="1" parent="1">
          <mxGeometry width="50" height="50" relative="1" as="geometry">
            <mxPoint x="-760" y="159.70999999999998" as="sourcePoint" />
            <mxPoint x="-720" y="159.70999999999998" as="targetPoint" />
          </mxGeometry>
        </mxCell>
        <mxCell id="w_SKbQwyrvD0fzMbNYvA-10" value="" style="endArrow=classic;html=1;startSize=14;endSize=14;sourcePerimeterSpacing=8;targetPerimeterSpacing=8;exitX=1;exitY=0.5;exitDx=0;exitDy=0;entryX=0;entryY=0.5;entryDx=0;entryDy=0;" edge="1" parent="1">
          <mxGeometry width="50" height="50" relative="1" as="geometry">
            <mxPoint x="-600" y="159.70999999999998" as="sourcePoint" />
            <mxPoint x="-560" y="159.70999999999998" as="targetPoint" />
            <Array as="points" />
          </mxGeometry>
        </mxCell>
        <mxCell id="w_SKbQwyrvD0fzMbNYvA-11" value="" style="endArrow=classic;html=1;startSize=14;endSize=14;sourcePerimeterSpacing=8;targetPerimeterSpacing=8;exitX=1;exitY=0.5;exitDx=0;exitDy=0;entryX=0;entryY=0.5;entryDx=0;entryDy=0;" edge="1" parent="1">
          <mxGeometry width="50" height="50" relative="1" as="geometry">
            <mxPoint x="-439" y="160" as="sourcePoint" />
            <mxPoint x="-719" y="260.0000000000001" as="targetPoint" />
            <Array as="points">
              <mxPoint x="-419" y="160" />
              <mxPoint x="-419" y="210" />
              <mxPoint x="-749" y="210" />
              <mxPoint x="-749" y="260" />
            </Array>
          </mxGeometry>
        </mxCell>
        <mxCell id="w_SKbQwyrvD0fzMbNYvA-12" value="" style="endArrow=classic;html=1;startSize=14;endSize=14;sourcePerimeterSpacing=8;targetPerimeterSpacing=8;exitX=1;exitY=0.5;exitDx=0;exitDy=0;entryX=0;entryY=0.5;entryDx=0;entryDy=0;" edge="1" parent="1">
          <mxGeometry width="50" height="50" relative="1" as="geometry">
            <mxPoint x="-600" y="259.5799999999999" as="sourcePoint" />
            <mxPoint x="-560" y="259.5799999999999" as="targetPoint" />
          </mxGeometry>
        </mxCell>
        <mxCell id="w_SKbQwyrvD0fzMbNYvA-13" value="" style="endArrow=classic;html=1;startSize=14;endSize=14;sourcePerimeterSpacing=8;targetPerimeterSpacing=8;exitX=1;exitY=0.5;exitDx=0;exitDy=0;entryX=0;entryY=0.5;entryDx=0;entryDy=0;" edge="1" parent="1">
          <mxGeometry width="50" height="50" relative="1" as="geometry">
            <mxPoint x="-440" y="259.5799999999999" as="sourcePoint" />
            <mxPoint x="-400" y="259.5799999999999" as="targetPoint" />
          </mxGeometry>
        </mxCell>
        <mxCell id="w_SKbQwyrvD0fzMbNYvA-14" value="" style="endArrow=classic;html=1;startSize=14;endSize=14;sourcePerimeterSpacing=8;targetPerimeterSpacing=8;exitX=1;exitY=0.5;exitDx=0;exitDy=0;" edge="1" parent="1" source="w_SKbQwyrvD0fzMbNYvA-19">
          <mxGeometry width="50" height="50" relative="1" as="geometry">
            <mxPoint x="-918" y="739.5799999999999" as="sourcePoint" />
            <mxPoint x="-880" y="730" as="targetPoint" />
            <Array as="points" />
          </mxGeometry>
        </mxCell>
        <mxCell id="w_SKbQwyrvD0fzMbNYvA-15" value="" style="endArrow=classic;html=1;startSize=14;endSize=14;sourcePerimeterSpacing=8;targetPerimeterSpacing=8;exitX=1;exitY=0.5;exitDx=0;exitDy=0;" edge="1" parent="1">
          <mxGeometry width="50" height="50" relative="1" as="geometry">
            <mxPoint x="-768" y="729.9999999999998" as="sourcePoint" />
            <mxPoint x="-720" y="730" as="targetPoint" />
            <Array as="points">
              <mxPoint x="-780" y="730" />
            </Array>
          </mxGeometry>
        </mxCell>
        <mxCell id="w_SKbQwyrvD0fzMbNYvA-16" value="Yes" style="edgeLabel;align=center;verticalAlign=middle;resizable=0;points=[];labelBorderColor=none;html=1;" vertex="1" connectable="0" parent="w_SKbQwyrvD0fzMbNYvA-15">
          <mxGeometry x="-0.512" y="1" relative="1" as="geometry">
            <mxPoint x="24" y="1" as="offset" />
          </mxGeometry>
        </mxCell>
        <mxCell id="w_SKbQwyrvD0fzMbNYvA-17" value="" style="endArrow=classic;html=1;startSize=14;endSize=14;sourcePerimeterSpacing=8;targetPerimeterSpacing=8;entryX=0;entryY=0.5;entryDx=0;entryDy=0;exitX=1;exitY=0.5;exitDx=0;exitDy=0;" edge="1" parent="1" source="w_SKbQwyrvD0fzMbNYvA-7" target="w_SKbQwyrvD0fzMbNYvA-19">
          <mxGeometry width="50" height="50" relative="1" as="geometry">
            <mxPoint x="-1084" y="745" as="sourcePoint" />
            <mxPoint x="-1050" y="729.5" as="targetPoint" />
          </mxGeometry>
        </mxCell>
        <mxCell id="w_SKbQwyrvD0fzMbNYvA-18" value="The End of Process" style="rounded=1;whiteSpace=wrap;html=1;hachureGap=4;pointerEvents=0;fillColor=#f8cecc;strokeColor=#b85450;" vertex="1" parent="1">
          <mxGeometry x="-400" y="700" width="120" height="60" as="geometry" />
        </mxCell>
        <mxCell id="w_SKbQwyrvD0fzMbNYvA-19" value="Run - Workflow" style="rounded=1;whiteSpace=wrap;html=1;hachureGap=4;pointerEvents=0;" vertex="1" parent="1">
          <mxGeometry x="-1046" y="700" width="120" height="60" as="geometry" />
        </mxCell>
        <mxCell id="w_SKbQwyrvD0fzMbNYvA-20" value="" style="endArrow=classic;html=1;startSize=14;endSize=14;sourcePerimeterSpacing=8;targetPerimeterSpacing=8;exitX=1;exitY=0.5;exitDx=0;exitDy=0;" edge="1" parent="1" source="w_SKbQwyrvD0fzMbNYvA-8">
          <mxGeometry width="50" height="50" relative="1" as="geometry">
            <mxPoint x="-582" y="730" as="sourcePoint" />
            <mxPoint x="-560" y="730" as="targetPoint" />
          </mxGeometry>
        </mxCell>
        <mxCell id="w_SKbQwyrvD0fzMbNYvA-21" value="Switch to The St. James&amp;nbsp;" style="rounded=1;whiteSpace=wrap;html=1;hachureGap=4;pointerEvents=0;" vertex="1" parent="1">
          <mxGeometry x="-1040" y="130" width="120" height="60" as="geometry" />
        </mxCell>
        <mxCell id="w_SKbQwyrvD0fzMbNYvA-22" value="Click - Financials" style="rounded=1;whiteSpace=wrap;html=1;hachureGap=4;pointerEvents=0;" vertex="1" parent="1">
          <mxGeometry x="-880" y="310" width="120" height="60" as="geometry" />
        </mxCell>
        <mxCell id="w_SKbQwyrvD0fzMbNYvA-23" value="Click - Transactions" style="rounded=1;whiteSpace=wrap;html=1;hachureGap=4;pointerEvents=0;" vertex="1" parent="1">
          <mxGeometry x="-720" y="310" width="120" height="60" as="geometry" />
        </mxCell>
        <mxCell id="w_SKbQwyrvD0fzMbNYvA-24" value="Check new &lt;br&gt;item?" style="rhombus;whiteSpace=wrap;html=1;hachureGap=4;pointerEvents=0;" vertex="1" parent="1">
          <mxGeometry x="-550" y="300" width="100" height="80" as="geometry" />
        </mxCell>
        <mxCell id="w_SKbQwyrvD0fzMbNYvA-25" value="Download Report" style="rounded=1;whiteSpace=wrap;html=1;hachureGap=4;pointerEvents=0;" vertex="1" parent="1">
          <mxGeometry x="-400" y="310" width="120" height="60" as="geometry" />
        </mxCell>
        <mxCell id="w_SKbQwyrvD0fzMbNYvA-26" value="" style="endArrow=classic;html=1;startSize=14;endSize=14;sourcePerimeterSpacing=8;targetPerimeterSpacing=8;entryX=0;entryY=0.5;entryDx=0;entryDy=0;exitX=1;exitY=0.5;exitDx=0;exitDy=0;" edge="1" parent="1" source="w_SKbQwyrvD0fzMbNYvA-22" target="w_SKbQwyrvD0fzMbNYvA-23">
          <mxGeometry width="50" height="50" relative="1" as="geometry">
            <mxPoint x="450" y="200" as="sourcePoint" />
            <mxPoint x="490" y="169.57999999999993" as="targetPoint" />
          </mxGeometry>
        </mxCell>
        <mxCell id="w_SKbQwyrvD0fzMbNYvA-27" value="" style="endArrow=classic;html=1;startSize=14;endSize=14;sourcePerimeterSpacing=8;targetPerimeterSpacing=8;exitX=1;exitY=0.5;exitDx=0;exitDy=0;entryX=-0.017;entryY=0.489;entryDx=0;entryDy=0;entryPerimeter=0;" edge="1" parent="1" target="w_SKbQwyrvD0fzMbNYvA-24">
          <mxGeometry width="50" height="50" relative="1" as="geometry">
            <mxPoint x="-600" y="339.5799999999999" as="sourcePoint" />
            <mxPoint x="480" y="239.57999999999993" as="targetPoint" />
          </mxGeometry>
        </mxCell>
        <mxCell id="w_SKbQwyrvD0fzMbNYvA-28" value="" style="endArrow=classic;html=1;startSize=14;endSize=14;sourcePerimeterSpacing=8;targetPerimeterSpacing=8;exitX=0.991;exitY=0.503;exitDx=0;exitDy=0;entryX=0;entryY=0.5;entryDx=0;entryDy=0;exitPerimeter=0;" edge="1" parent="1" source="w_SKbQwyrvD0fzMbNYvA-24">
          <mxGeometry width="50" height="50" relative="1" as="geometry">
            <mxPoint x="600" y="239.57999999999993" as="sourcePoint" />
            <mxPoint x="-400" y="339.5799999999999" as="targetPoint" />
          </mxGeometry>
        </mxCell>
        <mxCell id="w_SKbQwyrvD0fzMbNYvA-29" value="Yes" style="edgeLabel;html=1;align=center;verticalAlign=middle;resizable=0;points=[];labelBorderColor=none;" vertex="1" connectable="0" parent="w_SKbQwyrvD0fzMbNYvA-28">
          <mxGeometry x="-0.4583" relative="1" as="geometry">
            <mxPoint x="5" as="offset" />
          </mxGeometry>
        </mxCell>
        <mxCell id="w_SKbQwyrvD0fzMbNYvA-30" value="Open website and login" style="rounded=1;whiteSpace=wrap;html=1;hachureGap=4;pointerEvents=0;fillColor=#d5e8d4;strokeColor=#82b366;" vertex="1" parent="1">
          <mxGeometry x="-1210" y="130" width="120" height="60" as="geometry" />
        </mxCell>
        <mxCell id="w_SKbQwyrvD0fzMbNYvA-31" value="Click - Registrations" style="rounded=1;whiteSpace=wrap;html=1;hachureGap=4;pointerEvents=0;" vertex="1" parent="1">
          <mxGeometry x="-880" y="130" width="120" height="60" as="geometry" />
        </mxCell>
        <mxCell id="w_SKbQwyrvD0fzMbNYvA-32" value="Check new &lt;br&gt;item?" style="rhombus;whiteSpace=wrap;html=1;hachureGap=4;pointerEvents=0;" vertex="1" parent="1">
          <mxGeometry x="-880" y="690" width="100" height="80" as="geometry" />
        </mxCell>
        <mxCell id="w_SKbQwyrvD0fzMbNYvA-36" value="Click - Financial Summary" style="rounded=1;whiteSpace=wrap;html=1;hachureGap=4;pointerEvents=0;" vertex="1" parent="1">
          <mxGeometry x="-720" y="400" width="120" height="60" as="geometry" />
        </mxCell>
        <mxCell id="w_SKbQwyrvD0fzMbNYvA-37" value="Set dates" style="rounded=1;whiteSpace=wrap;html=1;hachureGap=4;pointerEvents=0;" vertex="1" parent="1">
          <mxGeometry x="-560" y="400" width="120" height="60" as="geometry" />
        </mxCell>
        <mxCell id="w_SKbQwyrvD0fzMbNYvA-38" value="Select Report Type - Transaction" style="rounded=1;whiteSpace=wrap;html=1;hachureGap=4;pointerEvents=0;" vertex="1" parent="1">
          <mxGeometry x="-720" y="500" width="120" height="60" as="geometry" />
        </mxCell>
        <mxCell id="w_SKbQwyrvD0fzMbNYvA-39" value="Download Report" style="rounded=1;whiteSpace=wrap;html=1;hachureGap=4;pointerEvents=0;" vertex="1" parent="1">
          <mxGeometry x="-560" y="500" width="120" height="60" as="geometry" />
        </mxCell>
        <mxCell id="w_SKbQwyrvD0fzMbNYvA-40" value="Save New Report and&lt;br&gt;Archive Old Report" style="rounded=1;whiteSpace=wrap;html=1;hachureGap=4;pointerEvents=0;" vertex="1" parent="1">
          <mxGeometry x="-400" y="500" width="120" height="60" as="geometry" />
        </mxCell>
        <mxCell id="w_SKbQwyrvD0fzMbNYvA-41" value="" style="endArrow=classic;html=1;startSize=14;endSize=14;sourcePerimeterSpacing=8;targetPerimeterSpacing=8;exitX=1;exitY=0.5;exitDx=0;exitDy=0;entryX=0;entryY=0.5;entryDx=0;entryDy=0;" edge="1" parent="1">
          <mxGeometry width="50" height="50" relative="1" as="geometry">
            <mxPoint x="-760" y="429.71000000000004" as="sourcePoint" />
            <mxPoint x="-720" y="429.71000000000004" as="targetPoint" />
          </mxGeometry>
        </mxCell>
        <mxCell id="w_SKbQwyrvD0fzMbNYvA-42" value="" style="endArrow=classic;html=1;startSize=14;endSize=14;sourcePerimeterSpacing=8;targetPerimeterSpacing=8;exitX=1;exitY=0.5;exitDx=0;exitDy=0;entryX=0;entryY=0.5;entryDx=0;entryDy=0;" edge="1" parent="1">
          <mxGeometry width="50" height="50" relative="1" as="geometry">
            <mxPoint x="-600" y="429.71000000000004" as="sourcePoint" />
            <mxPoint x="-560" y="429.71000000000004" as="targetPoint" />
            <Array as="points" />
          </mxGeometry>
        </mxCell>
        <mxCell id="w_SKbQwyrvD0fzMbNYvA-43" value="" style="endArrow=classic;html=1;startSize=14;endSize=14;sourcePerimeterSpacing=8;targetPerimeterSpacing=8;exitX=1;exitY=0.5;exitDx=0;exitDy=0;entryX=0;entryY=0.5;entryDx=0;entryDy=0;" edge="1" parent="1">
          <mxGeometry width="50" height="50" relative="1" as="geometry">
            <mxPoint x="-439" y="430" as="sourcePoint" />
            <mxPoint x="-719" y="530.0000000000001" as="targetPoint" />
            <Array as="points">
              <mxPoint x="-419" y="430" />
              <mxPoint x="-419" y="480" />
              <mxPoint x="-749" y="480" />
              <mxPoint x="-749" y="530" />
            </Array>
          </mxGeometry>
        </mxCell>
        <mxCell id="w_SKbQwyrvD0fzMbNYvA-44" value="" style="endArrow=classic;html=1;startSize=14;endSize=14;sourcePerimeterSpacing=8;targetPerimeterSpacing=8;exitX=1;exitY=0.5;exitDx=0;exitDy=0;entryX=0;entryY=0.5;entryDx=0;entryDy=0;" edge="1" parent="1">
          <mxGeometry width="50" height="50" relative="1" as="geometry">
            <mxPoint x="-600" y="529.5799999999999" as="sourcePoint" />
            <mxPoint x="-560" y="529.5799999999999" as="targetPoint" />
          </mxGeometry>
        </mxCell>
        <mxCell id="w_SKbQwyrvD0fzMbNYvA-45" value="" style="endArrow=classic;html=1;startSize=14;endSize=14;sourcePerimeterSpacing=8;targetPerimeterSpacing=8;exitX=1;exitY=0.5;exitDx=0;exitDy=0;entryX=0;entryY=0.5;entryDx=0;entryDy=0;" edge="1" parent="1">
          <mxGeometry width="50" height="50" relative="1" as="geometry">
            <mxPoint x="-440" y="529.5799999999999" as="sourcePoint" />
            <mxPoint x="-400" y="529.5799999999999" as="targetPoint" />
          </mxGeometry>
        </mxCell>
        <mxCell id="w_SKbQwyrvD0fzMbNYvA-46" value="Click - Financials" style="rounded=1;whiteSpace=wrap;html=1;hachureGap=4;pointerEvents=0;" vertex="1" parent="1">
          <mxGeometry x="-880" y="580" width="120" height="60" as="geometry" />
        </mxCell>
        <mxCell id="w_SKbQwyrvD0fzMbNYvA-47" value="Click - Transactions" style="rounded=1;whiteSpace=wrap;html=1;hachureGap=4;pointerEvents=0;" vertex="1" parent="1">
          <mxGeometry x="-720" y="580" width="120" height="60" as="geometry" />
        </mxCell>
        <mxCell id="w_SKbQwyrvD0fzMbNYvA-48" value="Check new &lt;br&gt;item?" style="rhombus;whiteSpace=wrap;html=1;hachureGap=4;pointerEvents=0;" vertex="1" parent="1">
          <mxGeometry x="-550" y="570" width="100" height="80" as="geometry" />
        </mxCell>
        <mxCell id="w_SKbQwyrvD0fzMbNYvA-49" value="Download Report" style="rounded=1;whiteSpace=wrap;html=1;hachureGap=4;pointerEvents=0;" vertex="1" parent="1">
          <mxGeometry x="-400" y="580" width="120" height="60" as="geometry" />
        </mxCell>
        <mxCell id="w_SKbQwyrvD0fzMbNYvA-50" value="" style="endArrow=classic;html=1;startSize=14;endSize=14;sourcePerimeterSpacing=8;targetPerimeterSpacing=8;entryX=0;entryY=0.5;entryDx=0;entryDy=0;exitX=1;exitY=0.5;exitDx=0;exitDy=0;" edge="1" parent="1" source="w_SKbQwyrvD0fzMbNYvA-46" target="w_SKbQwyrvD0fzMbNYvA-47">
          <mxGeometry width="50" height="50" relative="1" as="geometry">
            <mxPoint x="450" y="470" as="sourcePoint" />
            <mxPoint x="490" y="439.5799999999999" as="targetPoint" />
          </mxGeometry>
        </mxCell>
        <mxCell id="w_SKbQwyrvD0fzMbNYvA-51" value="" style="endArrow=classic;html=1;startSize=14;endSize=14;sourcePerimeterSpacing=8;targetPerimeterSpacing=8;exitX=1;exitY=0.5;exitDx=0;exitDy=0;entryX=-0.017;entryY=0.489;entryDx=0;entryDy=0;entryPerimeter=0;" edge="1" parent="1">
          <mxGeometry width="50" height="50" relative="1" as="geometry">
            <mxPoint x="-600" y="609.5799999999999" as="sourcePoint" />
            <mxPoint x="-551.7" y="609.1199999999999" as="targetPoint" />
          </mxGeometry>
        </mxCell>
        <mxCell id="w_SKbQwyrvD0fzMbNYvA-52" value="" style="endArrow=classic;html=1;startSize=14;endSize=14;sourcePerimeterSpacing=8;targetPerimeterSpacing=8;exitX=0.991;exitY=0.503;exitDx=0;exitDy=0;entryX=0;entryY=0.5;entryDx=0;entryDy=0;exitPerimeter=0;" edge="1" parent="1">
          <mxGeometry width="50" height="50" relative="1" as="geometry">
            <mxPoint x="-450.9000000000001" y="610.24" as="sourcePoint" />
            <mxPoint x="-400" y="609.5799999999999" as="targetPoint" />
          </mxGeometry>
        </mxCell>
        <mxCell id="w_SKbQwyrvD0fzMbNYvA-53" value="Yes" style="edgeLabel;html=1;align=center;verticalAlign=middle;resizable=0;points=[];labelBorderColor=none;" vertex="1" connectable="0" parent="w_SKbQwyrvD0fzMbNYvA-52">
          <mxGeometry x="-0.4583" relative="1" as="geometry">
            <mxPoint x="5" as="offset" />
          </mxGeometry>
        </mxCell>
        <mxCell id="w_SKbQwyrvD0fzMbNYvA-54" value="Click - Registrations" style="rounded=1;whiteSpace=wrap;html=1;hachureGap=4;pointerEvents=0;" vertex="1" parent="1">
          <mxGeometry x="-880" y="400" width="120" height="60" as="geometry" />
        </mxCell>
        <mxCell id="w_SKbQwyrvD0fzMbNYvA-57" value="" style="endArrow=classic;html=1;startSize=14;endSize=14;sourcePerimeterSpacing=8;targetPerimeterSpacing=8;exitX=1;exitY=0.5;exitDx=0;exitDy=0;entryX=0;entryY=0.5;entryDx=0;entryDy=0;" edge="1" parent="1">
          <mxGeometry width="50" height="50" relative="1" as="geometry">
            <mxPoint x="-920" y="159.89999999999998" as="sourcePoint" />
            <mxPoint x="-880" y="159.89999999999998" as="targetPoint" />
          </mxGeometry>
        </mxCell>
        <mxCell id="w_SKbQwyrvD0fzMbNYvA-58" value="" style="endArrow=classic;html=1;startSize=14;endSize=14;sourcePerimeterSpacing=8;targetPerimeterSpacing=8;exitX=1;exitY=0.5;exitDx=0;exitDy=0;entryX=0;entryY=0.5;entryDx=0;entryDy=0;" edge="1" parent="1" source="w_SKbQwyrvD0fzMbNYvA-30">
          <mxGeometry width="50" height="50" relative="1" as="geometry">
            <mxPoint x="-1080" y="159.70999999999998" as="sourcePoint" />
            <mxPoint x="-1040" y="159.70999999999998" as="targetPoint" />
          </mxGeometry>
        </mxCell>
        <mxCell id="w_SKbQwyrvD0fzMbNYvA-59" value="Switch to The St. James FC Virginia" style="rounded=1;whiteSpace=wrap;html=1;hachureGap=4;pointerEvents=0;" vertex="1" parent="1">
          <mxGeometry x="-1040" y="400" width="120" height="60" as="geometry" />
        </mxCell>
        <mxCell id="w_SKbQwyrvD0fzMbNYvA-60" value="" style="endArrow=classic;html=1;startSize=14;endSize=14;sourcePerimeterSpacing=8;targetPerimeterSpacing=8;exitX=1;exitY=0.5;exitDx=0;exitDy=0;entryX=0;entryY=0.5;entryDx=0;entryDy=0;" edge="1" parent="1">
          <mxGeometry width="50" height="50" relative="1" as="geometry">
            <mxPoint x="-920" y="429.9" as="sourcePoint" />
            <mxPoint x="-880" y="429.9" as="targetPoint" />
          </mxGeometry>
        </mxCell>
        <mxCell id="w_SKbQwyrvD0fzMbNYvA-61" value="" style="endArrow=classic;html=1;startSize=14;endSize=14;sourcePerimeterSpacing=8;targetPerimeterSpacing=8;entryX=0;entryY=0.5;entryDx=0;entryDy=0;" edge="1" parent="1" target="w_SKbQwyrvD0fzMbNYvA-59">
          <mxGeometry width="50" height="50" relative="1" as="geometry">
            <mxPoint x="-1090" y="160" as="sourcePoint" />
            <mxPoint x="-1050" y="429.71000000000004" as="targetPoint" />
            <Array as="points">
              <mxPoint x="-1070" y="160" />
              <mxPoint x="-1070" y="430" />
            </Array>
          </mxGeometry>
        </mxCell>
        <mxCell id="w_SKbQwyrvD0fzMbNYvA-62" value="" style="endArrow=classic;html=1;startSize=14;endSize=14;sourcePerimeterSpacing=8;targetPerimeterSpacing=8;entryX=0;entryY=0.5;entryDx=0;entryDy=0;" edge="1" parent="1" target="w_SKbQwyrvD0fzMbNYvA-22">
          <mxGeometry width="50" height="50" relative="1" as="geometry">
            <mxPoint x="-920" y="160" as="sourcePoint" />
            <mxPoint x="-870" y="430" as="targetPoint" />
            <Array as="points">
              <mxPoint x="-910" y="160" />
              <mxPoint x="-910" y="340" />
            </Array>
          </mxGeometry>
        </mxCell>
        <mxCell id="w_SKbQwyrvD0fzMbNYvA-63" value="" style="endArrow=classic;html=1;startSize=14;endSize=14;sourcePerimeterSpacing=8;targetPerimeterSpacing=8;entryX=0;entryY=0.5;entryDx=0;entryDy=0;" edge="1" parent="1">
          <mxGeometry width="50" height="50" relative="1" as="geometry">
            <mxPoint x="-920" y="430" as="sourcePoint" />
            <mxPoint x="-880" y="610" as="targetPoint" />
            <Array as="points">
              <mxPoint x="-910" y="430" />
              <mxPoint x="-910" y="610" />
            </Array>
          </mxGeometry>
        </mxCell>
        <mxCell id="w_SKbQwyrvD0fzMbNYvA-65" value="Email Bot Running Result" style="rounded=1;whiteSpace=wrap;html=1;hachureGap=4;pointerEvents=0;" vertex="1" parent="1">
          <mxGeometry x="-560" y="700" width="120" height="60" as="geometry" />
        </mxCell>
        <mxCell id="w_SKbQwyrvD0fzMbNYvA-67" value="" style="endArrow=classic;html=1;startSize=14;endSize=14;sourcePerimeterSpacing=8;targetPerimeterSpacing=8;entryX=-0.017;entryY=0.489;entryDx=0;entryDy=0;entryPerimeter=0;" edge="1" parent="1">
          <mxGeometry width="50" height="50" relative="1" as="geometry">
            <mxPoint x="-440" y="730" as="sourcePoint" />
            <mxPoint x="-399.99999999999983" y="729.7599999999999" as="targetPoint" />
          </mxGeometry>
        </mxCell>
      </root>
    </mxGraphModel>
  </diagram>
</mxfile>
